<svg width="100" height="100" viewBox="0 0 100 100" fill="none" xmlns="http://www.w3.org/2000/svg">
<path d="M100 47.2027C99.5768 51.9743 99.512 56.8085 98.6506 61.5035C97.1652 69.6005 93.1263 76.6014 87.5202 83.1156C83.5955 86.4322 79.8886 89.5107 76.1691 92.5748C75.4045 93.2046 74.5928 93.7801 73.783 94.3892C73.7632 94.3977 73.7509 94.3572 73.5303 94.2936C54.837 103.122 37.2224 101.705 20.4517 90.0521C19.4026 89.3232 18.2958 88.6734 17.2063 88.0063C17.1968 88.0258 17.1563 88.0085 17.2683 87.8717C16.1715 86.6134 14.9626 85.4919 13.7538 84.3705C13.5304 84.0777 13.3071 83.7849 12.8806 83.2798C4.12915 73.3252 0.0646004 62.0254 0.000506564 49.2155C-0.0356681 41.9842 1.86954 35.2347 4.45799 28.5859C7.71874 22.2024 11.9013 16.5075 17.7711 11.72C18.2048 11.325 18.41 11.1126 18.6151 10.9001C31.2076 1.33969 45.331 -2.00882 60.9655 1.15994C68.5157 2.6902 75.2275 6.06958 81.4801 10.6788C81.6835 10.642 81.6988 10.7043 81.6988 10.7043C81.9118 11.0219 82.0637 11.4086 82.3467 11.6472C93.0445 20.6668 98.6586 32.1629 99.8767 46.1803C99.9285 46.764 99.9642 46.9834 100 47.2027ZM72.6666 44.8334C72.0151 44.9682 71.3469 45.0513 70.7148 45.2462C66.64 46.5027 64.5566 50.6918 66.1502 54.3813C67.8567 58.332 72.5657 60.0591 76.353 58.1233C79.1255 56.7062 80.7405 53.705 80.28 50.8259C79.7552 47.5446 77.1831 45.4047 72.6666 44.8334ZM34.7073 51.8316C34.5509 51.0368 34.502 50.2033 34.2194 49.4539C33.0676 46.3998 29.4005 44.3304 26.2098 44.8627C22.5154 45.4791 20.1589 48.023 20.0454 51.5174C19.9316 55.021 22.1102 57.8474 25.5859 58.7055C29.8436 59.7566 33.7217 57.0045 34.7073 51.8316Z" fill="black"/>
</svg>
