<svg width="91" height="100" viewBox="0 0 91 100" fill="none" xmlns="http://www.w3.org/2000/svg">
<path d="M16.8275 79.9306C16.3363 79.1674 15.886 78.3743 15.3468 77.6464C13.2268 74.7841 11.869 71.7096 11.8581 68.0378C11.8299 58.5531 11.6105 49.0689 11.5764 39.5842C11.5592 34.8086 11.7258 30.0301 11.9229 25.2576C11.9849 23.7569 12.4165 22.2712 12.7685 20.4821C13.3119 19.2061 13.7151 18.1995 14.228 17.2518C17.1488 11.8553 22.171 9.03254 27.4709 6.53829C28.5577 6.02682 29.5624 5.34213 30.6049 4.7373C30.9007 5.24339 31.4148 5.73098 31.4597 6.25829C32.1917 14.8508 32.8515 23.4495 33.5575 32.0443C33.7859 34.8252 34.2418 35.2162 37.0974 35.2444C39.6319 35.2694 42.1668 35.2496 44.8198 35.2496C44.8769 35.9087 44.9671 36.4672 44.9675 37.0258C44.9772 50.5117 44.9407 63.9978 45.0231 77.4833C45.034 79.2649 44.3953 79.8281 42.7837 79.7352C41.1377 79.6402 39.4908 79.5605 37.6214 79.4624C38.2909 82.4834 40.2602 84.2261 42.7743 85.2567C44.6318 86.0182 45.178 87.0749 45.0534 88.9924C44.8758 91.7251 45.0083 94.4778 45.0083 97.3265C48.0756 97.3265 51.0825 97.6528 53.9646 97.1965C55.5379 96.9474 57.474 95.7013 58.2585 94.3398C61.8498 88.108 66.3316 82.5959 71.6226 77.8275C75.3563 74.4626 76.8469 70.5181 76.8199 65.7269C76.7474 52.8963 76.9325 40.0582 76.5403 27.2375C76.2957 19.2418 71.3423 13.9853 64.5189 10.3857C62.6763 9.41371 60.6702 8.74956 58.5871 7.88067C58.8163 7.26569 59.053 6.63095 59.3607 5.80563C68.4325 9.11668 75.9991 13.7477 78.3057 23.7092C78.9643 26.5531 78.8114 29.6115 78.8183 32.572C78.8447 43.9522 78.7454 55.3327 78.7754 66.7129C78.7885 71.6855 77.2495 75.6767 73.3882 79.1768C68.3422 83.7509 63.7915 88.9186 60.6028 95.032C58.841 98.4097 56.0384 99.8556 52.4889 99.9364C46.8884 100.064 41.2826 99.9639 35.679 99.9423C32.8868 99.9315 31.2081 98.1633 29.6751 96.1384C26.0861 91.3981 22.4747 86.6746 18.8577 81.9553C18.3303 81.2671 17.7226 80.6399 16.9849 79.9819C16.8177 79.9795 16.8275 79.9306 16.8275 79.9306ZM22.365 53.8154C26.6195 54.1422 30.8715 54.5187 35.132 54.7214C35.5764 54.7426 36.5242 53.6808 36.4685 53.2123C36.0614 49.7895 33.6856 47.1535 30.3886 46.7606C25.8741 46.2226 21.323 45.9901 16.7886 45.6268C16.4461 49.2211 18.1997 51.881 22.365 53.8154Z" fill="black"/>
<path d="M36.0449 6.37801C36.0021 4.72584 35.9522 3.27693 35.9468 1.82787C35.9423 0.633968 36.3996 -0.00635152 37.7767 0.0120054C42.213 0.0711146 46.651 0.0427156 51.0878 0.000263276C52.5013 -0.0132588 53.3698 0.492079 53.2963 1.98421C52.8225 11.6068 52.3258 21.2283 51.8226 30.8494C51.8083 31.1241 51.638 31.3906 51.5218 31.7128C47.2309 31.7128 42.9526 31.7225 38.6743 31.7068C37.4131 31.7021 37.2128 30.8863 37.1651 29.8052C36.8239 22.0626 36.4325 14.3223 36.0449 6.37801Z" fill="black"/>
<path d="M8.63664 61.7819C8.54838 63.7117 8.4603 65.4282 8.37224 67.1447C8.19104 67.2617 8.00981 67.3788 7.82859 67.4958C5.293 65.0919 2.72125 62.7235 0.262264 60.2442C-0.0908849 59.8881 0.0492228 58.997 0.046756 58.3532C0.0280493 53.4942 -0.0712577 48.6317 0.0933696 43.7783C0.138664 42.4431 0.618306 40.7137 1.54695 39.8954C4.10515 37.6412 4.83129 34.9263 4.78366 31.7311C4.74388 29.0639 5.45503 28.5415 8.63686 28.8408C8.63686 39.7249 8.63686 50.6467 8.63664 61.7819Z" fill="black"/>
<path d="M86.127 31.3467C85.8341 34.5606 86.1899 37.5005 88.8418 39.8566C91.0353 41.8055 90.1528 44.5847 90.353 47.3589C90.3864 47.7367 90.4106 47.8102 90.4348 47.8837C90.3543 51.5028 90.3188 55.1238 90.1608 58.7394C90.1224 59.6202 89.9395 60.7317 89.379 61.3098C87.4238 63.3264 85.274 65.1557 82.8823 67.3453C82.8823 54.1594 82.8823 41.3537 82.8823 28.4801C84.6929 28.4111 85.8598 28.7946 86.0156 30.8696C86.0783 31.2021 86.1026 31.2744 86.127 31.3467Z" fill="black"/>
<path d="M55.8496 48.68C57.8365 47.7621 59.6569 46.5605 61.6175 46.2571C65.6013 45.6405 69.6607 45.5093 73.7167 45.1758C74.2412 47.6998 72.9523 50.8244 70.2908 52.2658C68.7373 53.1071 66.9253 53.8012 65.1878 53.9121C61.3668 54.1561 57.5193 53.9878 53.1875 53.9878C54.117 52.1045 54.9318 50.4536 55.8496 48.68Z" fill="black"/>
</svg>
