<svg width="78" height="100" viewBox="0 0 78 100" fill="none" xmlns="http://www.w3.org/2000/svg">
<path d="M36.4753 99.6247C36.0377 99.6546 35.5915 99.6394 35.1638 99.7213C31.3079 100.46 28.6487 98.9431 26.7186 95.5841C25.6644 93.7495 24.1941 92.1546 22.7986 90.5265C22.6857 90.6014 22.7154 90.5915 22.7154 90.5915C22.0109 89.5302 21.4079 88.3816 20.5851 87.4219C16.0104 82.086 13.4743 75.7061 11.1578 69.2077C11.0786 68.9853 11.124 68.7184 11.132 68.8742C12.7473 69.141 14.3967 69.3173 15.9859 69.7277C16.5447 69.872 17.0323 70.5328 17.4201 71.0562C18.6124 72.6651 19.7407 74.3216 20.6937 75.6754C22.4046 74.1512 23.9732 72.8286 25.4265 71.3892C25.6827 71.1354 25.615 70.3246 25.4253 69.8897C24.7218 68.2765 22.6045 67.3071 20.6185 67.6443C19.7514 67.7916 18.9031 68.0604 18.0536 68.2998C14.006 69.4399 9.81381 66.9769 8.80479 62.8863C8.65936 62.2966 8.46178 61.6725 8.11588 61.1876C6.2899 58.6282 5.45187 55.778 5.4491 52.6577C5.44644 49.7018 5.44852 46.7459 5.44852 43.7901C5.22704 43.7653 5.00554 43.7406 4.78406 43.7159C4.65087 44.4984 4.39976 45.2817 4.40475 46.0632C4.4274 49.6036 4.40533 53.1517 4.65455 56.679C4.74219 57.9195 5.50252 59.1346 6.05396 60.3153C7.16294 62.6898 8.36567 65.0206 9.45428 67.404C9.58765 67.696 9.25873 68.1997 8.95337 68.4862C8.66593 68.2725 8.55064 68.235 8.35263 68.1446C3.98551 65.1509 0.71901 61.6093 0.491587 56.0479C0.383613 53.4084 0.14742 50.7741 0 47.9619C0.162204 44.0795 0.246904 40.37 0.456976 36.6677C0.512108 35.6963 0.955943 34.747 1.31309 33.4555C2.69996 35.1805 3.73773 36.5993 4.91099 37.8952C6.14555 39.2589 6.72304 40.6603 5.77545 42.5229C5.84146 42.8615 5.91184 43.0794 5.98224 43.2974C6.16256 43.0134 6.34288 42.7295 6.58816 42.3263C7.90002 40.7171 7.95978 39.476 6.60075 37.7873C3.20931 33.5735 1.02584 28.8211 1.23073 23.1966C1.53107 14.9512 4.71331 7.78281 9.26028 1.10242C9.52311 0.716232 9.94161 0.436277 10.3962 0.00354433C11.0274 0.889278 11.5626 1.64019 12.1042 2.40013C9.16379 6.32787 7.42373 10.6699 6.6677 15.4332C6.03776 19.4023 6.62249 23.0141 9.48294 26.1361C13.1036 14.9605 23.3517 9.47368 32.7045 9.22127C32.7045 10.1607 32.7049 11.0972 32.7044 12.0338C32.7005 20.5032 32.6747 28.9729 32.7219 37.4421C32.7274 38.4238 33.1376 39.4033 33.3601 40.3838C33.5483 40.3425 33.7366 40.3013 33.9248 40.26C33.9248 30.7823 33.9268 21.3046 33.9238 11.8269C33.9227 8.4538 33.9171 8.4538 37.3979 8.24702C39.4452 8.28735 41.3193 8.28735 43.3594 8.28735C43.3594 19.0229 43.3594 29.5169 43.3594 40.0108C43.5763 40.0501 43.7932 40.0895 44.01 40.1288C44.2212 39.056 44.6088 37.9843 44.6157 36.9101C44.6717 28.256 44.656 19.6015 44.6621 10.9471C44.6625 10.3436 44.6622 9.74013 44.6622 9.05052C56.057 10.1757 64.0539 15.3847 67.784 26.4729C69.7171 23.8495 71.1413 21.1483 70.8664 17.9894C70.4409 13.0996 69.0366 8.45994 66.4444 4.24437C65.0424 1.96439 65.0129 1.9826 67.2743 0C68.5188 1.83295 69.7466 3.64123 70.9899 5.61044C72.4327 9.60214 74.16 13.3523 75.2144 17.2833C76.6526 22.6452 76.6247 28.0976 73.8268 33.1285C72.5487 35.4268 70.8754 37.5048 69.3579 39.7171C70.2515 41.534 71.9452 43.3965 71.932 45.2469C71.8925 50.8188 73.0661 56.7285 69.0747 61.6567C68.819 61.9724 68.7746 62.4654 68.6502 62.8814C67.2725 67.4875 63.2418 69.6492 58.6566 68.2466C57.8733 68.007 57.09 67.7277 56.2857 67.6047C54.5772 67.3437 53.1934 68.0165 52.1684 69.3635C51.4869 70.259 51.3239 71.1665 52.3782 72.0018C53.7561 73.0935 55.085 74.2472 56.6671 75.568C57.6947 74.274 59.0504 72.5602 60.4154 70.8538C60.6834 70.5188 60.9411 70.005 61.2824 69.9291C62.7427 69.6045 64.2325 69.4129 65.9453 69.1348C65.1173 71.5476 64.2501 74.0749 63.2854 76.6943C61.7228 79.4917 60.3584 82.2586 58.7575 84.8807C57.685 86.6374 56.277 88.1887 54.9064 89.8952C53.3036 91.9107 51.6851 93.7797 50.3582 95.8373C48.9077 98.0864 47.0998 99.6381 44.269 100C42.9449 99.7781 41.7258 99.7853 40.6186 99.4367C39.1674 98.9796 37.8132 98.4878 36.4753 99.6247ZM45.1587 57.2309C45.3099 57.7895 45.4611 58.3482 45.5769 58.7761C47.3011 58.7761 48.7338 58.7717 50.1665 58.777C52.609 58.7862 55.0815 59.0527 57.4882 58.7649C63.6795 58.0245 67.3931 53.9778 67.9021 47.7137C67.9549 47.0642 67.7243 46.3916 67.6252 45.7297C67.4717 45.6789 67.3181 45.6281 67.1645 45.5773C65.4543 48.5717 62.7606 49.1766 59.6286 49.4662C53.911 49.9949 48.2716 51.0527 45.1587 57.2309ZM23.6852 59.077C26.2821 58.8131 28.8791 58.5491 31.8476 58.2473C31.7965 57.9309 31.8637 57.1775 31.5563 56.6382C29.9032 53.7391 27.6284 51.5264 24.2463 50.8154C21.6616 50.272 19.0631 49.7238 16.4424 49.4447C14.2177 49.2078 12.4888 48.3071 11.0657 46.6555C10.8049 46.3529 10.4791 46.1064 9.9153 45.5871C9.77494 46.7802 9.50443 47.6539 9.60156 48.4846C10.2433 53.9723 13.7483 57.71 19.1999 58.7181C20.5548 58.9687 21.9558 58.9691 23.6852 59.077ZM41.3839 87.244C42.2513 87.2506 43.145 87.393 43.9797 87.2308C45.1484 87.0038 46.2731 86.5498 47.617 86.1303C47.45 87.7657 47.3426 88.8172 47.2352 89.8687C49.0466 87.2505 50.4609 84.5371 51.867 81.8193C52.7145 80.1812 52.3691 78.833 50.5191 77.4302C50.1899 78.6026 49.7778 79.53 49.6871 80.488C49.3205 84.3594 48.4991 85.4581 45.5274 85.5936C45.5274 84.4522 45.584 83.3127 45.5103 82.1817C45.4455 81.1874 45.2348 80.2027 45.0886 79.2138C44.8599 79.2019 44.6312 79.19 44.4025 79.1781C43.8045 79.8665 43.2066 80.5549 42.4464 81.4301C43.2312 81.2908 43.7199 81.2041 44.3578 81.0909C44.256 82.5208 44.3425 83.8258 44.0062 85.0105C43.8267 85.6427 42.9507 86.4599 42.3306 86.5133C40.2757 86.6901 38.1931 86.5082 36.1233 86.5573C33.7433 86.6138 33.4456 86.4339 33.4163 84.1037C33.4019 82.9564 33.6627 81.8071 33.6803 80.6569C33.6866 80.2475 33.3423 79.8327 33.1405 79.3813C31.89 80.0208 31.1815 80.6006 31.9574 81.9285C32.2132 82.3663 32.1586 83.0591 32.0704 83.607C31.9561 84.3167 31.8441 85.4307 31.4167 85.607C30.3242 86.0581 29.1306 85.8136 28.5455 84.5471C27.7742 82.8778 27.7817 81.214 28.7627 79.7046C27.9012 79.143 27.0505 78.5884 26.1936 78.0299C24.3226 80.0248 25.5305 83.8072 29.7724 89.2294C30.0583 88.2598 30.3653 87.2181 30.6724 86.1765C31.7734 86.6282 32.8745 87.0798 33.8636 87.4856C34.7789 87.4856 35.6885 87.517 36.5952 87.4785C38.0906 87.415 39.5842 87.3062 41.3839 87.244ZM36.1651 71.7275C36.9851 71.0763 37.8052 70.4252 38.6981 69.7161C39.2804 70.1988 39.8417 70.8246 40.5389 71.1907C41.0854 71.4776 42.1075 71.7513 42.3739 71.4849C42.87 70.9889 43.3596 69.9639 43.1666 69.3901C42.3471 66.9535 41.4222 64.5265 40.2513 62.2423C39.3036 60.3934 38.0764 60.4439 37.1098 62.3259C36.0205 64.4467 35.1106 66.6731 34.2935 68.9159C33.7929 70.2898 34.2778 71.4077 36.1651 71.7275ZM38.8833 79.2949C37.9749 79.893 37.0665 80.4912 36.378 80.9445C37.9139 80.9445 39.5181 80.9445 41.1549 80.9445C40.4997 80.4612 39.8056 79.9493 38.8833 79.2949Z" fill="black"/>
<path d="M77.3002 46.1869C77.0887 50.1498 76.9855 53.9383 76.6394 57.7044C76.1354 63.189 72.1793 65.9926 67.5781 68.8742C67.7072 68.0315 67.6743 67.5584 67.8534 67.1879C69.1351 64.5355 70.5299 61.9356 71.7397 59.2517C72.2917 58.0272 72.7269 56.6665 72.8257 55.3385C73.0127 52.8259 72.8702 50.2908 72.9561 47.7681C73.0276 45.6653 73.0299 43.6218 71.7105 41.8094C70.9062 40.7048 71.0428 39.6647 71.9617 38.5976C73.3096 37.0322 74.5389 35.3644 75.8187 33.7402C76.0396 33.7688 76.2605 33.7973 76.4813 33.8258C76.723 35.8021 77.0509 37.7727 77.1824 39.7563C77.32 41.8318 77.2687 43.9199 77.3002 46.1869Z" fill="black"/>
</svg>
