<svg width="100" height="100" viewBox="0 0 100 100" fill="none" xmlns="http://www.w3.org/2000/svg">
<path d="M88.5445 34.9415C90.2039 40.6771 93.6723 45.6068 94.6336 51.3786C90.2357 45.8227 85.8378 40.2667 81.2828 34.5469C80.9996 34.3146 80.8733 34.2462 80.6909 34.0507C80.3965 33.8796 80.1583 33.8355 79.4383 33.7023C80.0483 34.1631 80.2583 34.3218 80.4996 34.5562C80.5924 34.7263 80.6734 34.7992 80.7743 34.8507C83.972 39.407 87.204 43.9403 90.3585 48.5254C94.0998 53.963 96.7435 59.9296 98.9785 66.2441C101.891 72.7134 98.0306 76.9314 94.2167 81.3291C94.231 81.4984 94.1881 81.4995 94.1881 81.4995C90.9137 84.1433 87.7875 86.9958 84.3319 89.3847C78.3875 93.4942 72.0591 96.957 64.9171 98.6819C64.1188 98.8746 63.2526 98.7934 62.5065 98.6539C71.0249 95.0847 77.546 89.3071 83.0045 82.3163C86.6506 77.6467 89.6581 72.6398 89.034 66.3326C88.9821 65.8082 89.462 65.2327 89.6948 64.681C89.5807 64.8675 89.4665 65.054 89.3524 65.2405C87.78 63.4847 86.2075 61.7288 84.4935 59.815C83.3171 64.1129 82.3962 68.4095 79.2181 71.7046C78.9526 71.9799 78.9759 72.5061 78.7913 72.8803C76.1196 78.2988 73.7747 83.9138 70.6244 89.0476C68.7887 92.039 65.6585 94.2577 63.1107 96.824C63.1649 96.5572 63.1231 96.1879 63.2872 96.0385C67.9538 91.7883 70.8592 86.4107 73.2617 80.7428C74.7675 77.1901 76.0306 73.5379 77.4743 69.9585C77.8094 69.1277 78.5255 68.4527 78.9138 67.6355C80.4041 64.4993 81.8324 61.3345 83.2415 58.2723C74.6966 50.4089 65.8815 43.85 55.6628 39.215C51.9611 37.5361 48.5211 37.6173 44.8018 39.1562C36.2146 42.7092 28.7834 47.9646 21.7261 53.8233C21.2898 54.1856 20.924 54.6673 20.4341 54.9239C17.1482 56.6449 17.1825 59.2592 18.3379 62.2076C18.6199 62.9271 18.7497 63.7345 19.158 64.3715C22.6264 69.7818 24.7131 75.8313 27.5737 81.6197C27.7295 81.6457 27.6938 81.6497 27.6938 81.6497C30.7221 89.4428 34.8785 96.2847 43.3571 99.4818C43.2716 99.6545 43.186 99.8273 43.1005 100C42.0783 99.6708 40.9858 99.4744 40.0458 98.9901C35.0248 96.4035 31.2847 92.3863 28.4969 87.6877C25.9934 83.4682 24.1649 78.8591 22.0402 74.4212C21.8578 74.0402 21.7654 73.5868 21.4977 73.2806C18.1235 69.4221 16.2672 64.8899 15.6411 59.6025C13.4312 61.5973 11.5553 63.2907 9.98672 64.7065C10.4491 72.6574 14.1164 79.1132 19.1381 84.8843C24.0913 90.5766 29.8192 95.3613 36.8858 98.4434C36.8089 98.6259 36.7319 98.8084 36.6549 98.9909C35.4402 98.6835 34.2117 98.4204 33.0146 98.0567C31.723 97.6642 30.4607 97.1776 28.9296 96.607C23.0395 93.2688 17.4055 90.0557 11.6956 86.7312C9.97914 85.1665 8.33866 83.7132 6.69824 82.2599C6.55512 82.0797 6.41205 81.8996 6.04557 81.4961C1.49492 76.913 -1.72975 72.2214 1.00833 65.7318C1.0337 65.6716 1.01341 65.5927 1.1344 65.4268C4.48769 55.2035 10.679 46.6569 16.6862 38.012C16.4622 37.8646 16.2381 37.7173 16.0141 37.57C12.4609 42.2052 8.90773 46.8403 5.35457 51.4755C5.23776 50.0113 5.43245 48.5901 5.95916 47.3007C7.73763 42.9472 9.63384 38.6405 11.4851 34.3158C13.1345 30.215 14.6943 26.0763 16.4544 22.0222C19.1177 15.8879 23.6867 11.327 29.2436 7.45803C32.5258 5.69962 35.6674 3.92297 38.9437 2.43466C47.4784 -1.44237 55.8382 -0.443649 63.9724 3.69678C66.3042 4.88371 68.5213 6.29001 70.9841 7.52936C71.1772 7.46299 71.2163 7.4782 71.2163 7.4782C71.5594 7.91203 71.8244 8.45123 72.2575 8.76388C78.6787 13.3999 82.8099 19.6417 85.4782 26.9314C86.4421 29.565 87.4571 32.1805 88.5445 34.9415ZM18.2385 35.0439C18.1742 35.1721 18.1098 35.3002 17.8356 35.4837C17.7079 35.6552 17.5802 35.8268 17.2054 36.2022C16.8667 36.6813 16.528 37.1603 16.1892 37.6393C16.3743 37.7595 16.5594 37.8796 16.7445 37.9998C17.1022 37.4886 17.4599 36.9774 18.0456 36.3461C18.1829 36.132 18.3202 35.9179 18.5993 35.5891C18.6953 35.5076 18.759 35.4063 18.924 35.0902C18.8985 34.9794 18.873 34.8685 18.8475 34.7577C18.7165 34.8337 18.5855 34.9097 18.2385 35.0439Z" fill="black"/>
<path d="M59.948 58.9308C64.4504 55.6783 69.3907 56.0187 74.4083 56.5263C72.1548 62.4879 68.3199 63.7174 57.2266 61.8972C58.2001 60.8268 59.0161 59.9296 59.948 58.9308Z" fill="black"/>
<path d="M27.0678 59.1761C26.4634 58.3076 25.9437 57.5637 25.3906 56.7723C32.9328 55.2388 39.5577 56.7651 42.266 61.6942C35.8756 64.2363 30.7913 63.4312 27.0678 59.1761Z" fill="black"/>
</svg>
