<svg width="85" height="100" viewBox="0 0 85 100" fill="none" xmlns="http://www.w3.org/2000/svg">
<path d="M60.4371 4.48348C64.1857 7.48468 67.7788 10.4694 71.5395 13.6302C71.9374 14.0348 72.1676 14.2633 72.3978 14.4918C77.3962 21.629 79.7785 29.5855 79.7024 38.2802C79.6903 39.6696 79.9319 40.656 81.3303 41.2599C83.5721 42.2282 84.2021 44.2891 84.6916 46.5594C84.8469 46.6317 84.82 46.6204 84.82 46.6204C84.7108 48.2125 84.5728 49.8032 84.4995 51.397C84.4082 53.3837 84.3338 55.3725 84.3176 57.361C84.2901 60.7154 82.3113 62.5735 79.2367 63.9547C77.9451 64.6066 76.2242 64.9379 76.0135 65.6932C74.5461 70.9538 72.0087 75.645 69.0552 80.1579C65.6648 84.3778 62.4082 88.7154 58.8489 92.7867C54.7178 97.512 49.6184 100.38 42.9097 99.8209C42.9097 66.6189 42.9097 33.528 42.9097 0.258789C49.1873 0.0707777 54.8655 1.70431 60.4371 4.48348ZM53.7137 43.0877C54.0937 44.2928 54.19 45.7095 54.9007 46.6676C58.7821 51.9 67.1735 50.8204 70.0397 44.8076C70.8706 43.0644 70.4591 42.3012 68.5186 42.2829C64.6651 42.2465 60.8103 42.2694 56.9573 42.3401C55.9482 42.3586 54.9439 42.6428 53.7137 43.0877Z" fill="black"/>
<path d="M14.6139 80.6469C14.5189 80.1622 14.5028 79.6445 14.3169 79.1978C12.4648 74.7465 10.6246 70.289 8.66698 65.8844C8.39088 65.2632 7.56124 64.6259 6.88823 64.489C2.6855 63.634 0.307248 61.1416 0.115787 56.8493C-0.0368651 53.4264 -0.0240464 49.9901 0.0702282 46.5641C0.14254 43.9351 1.19902 41.8731 3.81685 40.7342C4.42278 40.4706 4.97664 39.3391 5.00013 38.5895C5.2799 29.6462 7.46661 21.3836 13.1945 14.2968C20.3914 5.39243 29.7913 0.881164 41.0961 0C42.0773 1.73438 41.1399 2.16047 39.7786 2.34506C34.9412 3.001 30.4179 4.58547 26.1491 6.94792C15.37 12.9132 9.42129 22.1066 8.31484 34.3353C7.14161 47.3022 8.93758 59.9214 13.7824 72.0081C17.0624 80.1909 23.4909 85.9607 29.6984 91.8496C33.0723 95.0504 36.9531 97.2482 41.6821 97.8517C42.1519 99.5607 41.8091 100.224 39.9259 99.9342C33.8553 98.9993 29.3782 95.3735 25.2169 91.2633C22.5765 88.6554 20.1341 85.8457 17.2416 82.7384C17.2416 87.3615 17.2411 91.6162 17.2428 95.8709C17.2429 96.1689 17.3697 96.525 17.2489 96.754C16.8925 97.43 16.4413 98.0557 16.0272 98.701C15.606 98.0385 14.8439 97.3879 14.8206 96.7116C14.7 93.2119 14.7736 89.7056 14.7678 86.2017C14.7654 84.7855 14.7331 83.3694 14.7054 81.601C14.669 81.0482 14.6414 80.8475 14.6139 80.6469Z" fill="black"/>
<path d="M23.1355 41.8355C25.7969 41.8253 28.2367 41.8235 30.6762 41.798C32.4631 41.7794 32.8741 42.7494 32.4122 44.2651C31.5088 47.2298 28.4453 49.3216 25.0597 49.3426C21.4669 49.3649 17.8989 47.0819 16.9878 44.1699C16.5026 42.6192 16.8668 41.7151 18.7 41.8027C20.1019 41.8698 21.509 41.8274 23.1355 41.8355Z" fill="black"/>
</svg>
