<svg width="80" height="100" viewBox="0 0 80 100" fill="none" xmlns="http://www.w3.org/2000/svg">
<path d="M65.9947 82.3796C65.7903 82.7365 65.6178 82.9363 65.408 83.2681C62.1968 87.5157 60.1186 92.1647 58.697 97.1353C57.9178 99.8599 57.0381 100.569 54.3851 99.5674C50.5581 98.122 46.7981 96.4228 43.1939 94.4874C40.7871 93.1949 40.7492 91.84 42.374 89.6518C43.602 87.998 44.8518 86.3604 46.339 84.388C45.1843 83.7353 44.0831 83.3492 43.3139 82.6144C42.4688 81.8072 41.3473 80.6816 41.3427 79.69C41.2395 57.7486 41.274 35.8065 41.2881 13.8645C41.2883 13.5715 41.3629 13.2786 41.484 12.3887C45.0617 12.8195 48.6223 13.0532 52.093 13.7416C54.0676 14.1332 55.1629 13.72 56.2259 12.0641C58.2937 8.84338 60.4627 5.6756 62.7945 2.64388C63.607 1.58748 65.091 0.294782 66.1448 0.396244C67.1498 0.492997 68.3659 2.11559 68.8504 3.32426C72.943 13.5341 75.5516 24.1543 77 35.0459C78.0603 43.019 78.9585 51.0152 79.7969 59.0149C79.9114 60.1073 79.5198 61.4467 78.92 62.3892C74.6871 69.0417 70.3384 75.6204 65.9947 82.3796ZM70.8752 54.4148C71.5871 52.3311 72.299 50.2474 73.011 48.1636C72.7597 47.9561 72.5084 47.7486 72.2571 47.5412C67.4376 48.8948 62.5949 50.1721 57.8046 51.6227C52.5677 53.2085 51.1781 57.7752 49.3065 63.0034C53.7993 62.1608 57.6938 61.6033 61.4958 60.668C65.1841 59.7607 68.5041 58.0487 70.8752 54.4148ZM69.2197 17.3825C68.1294 14.0412 67.0392 10.7 65.7476 6.74193C63.3901 10.7207 61.4351 14.02 59.7096 16.9321C62.9533 20.3076 65.886 23.3963 68.8697 26.4347C69.4967 27.0732 70.3112 27.527 71.0393 28.066C71.2709 27.9191 71.5024 27.7723 71.734 27.6254C70.9195 24.3339 70.105 21.0425 69.2197 17.3825Z" fill="black"/>
<path d="M7.30942 13.5116C8.61361 9.92936 9.83397 6.31359 11.2461 2.77458C12.5998 -0.617808 14.7791 -0.915552 16.9498 1.97047C19.1081 4.84004 21.1222 7.81845 23.3123 10.8553C24.4932 13.4745 26.0173 14.3277 28.9344 13.5364C31.9516 12.7179 35.2083 12.7854 38.5523 12.4458C38.5523 23.7666 38.5589 34.4957 38.5505 45.2248C38.5417 56.3467 38.4308 67.4696 38.5664 78.5896C38.5979 81.1752 37.7929 82.6551 35.3883 83.3681C34.9671 83.493 34.5939 83.7806 33.8055 84.2044C34.6347 85.4001 35.3793 86.4811 36.1319 87.5566C36.9621 88.7431 38.1732 89.8293 38.506 91.1406C38.7377 92.0538 38.0736 93.6505 37.2837 94.2906C33.59 97.2835 29.2116 98.9163 24.5873 99.8249C23.2984 100.078 21.8295 99.8585 21.4629 98.2266C19.1516 87.9397 12.195 80.2283 6.83201 71.6363C4.80519 68.3891 2.61819 65.2409 0.644451 61.9628C0.147423 61.1373 -0.085736 59.9526 0.0285978 58.9888C1.10266 49.9344 2.27861 40.8921 3.29471 31.7275C3.16432 31.6087 3.20336 31.6116 3.35119 31.4666C4.15203 27.8334 4.80508 24.3452 5.55623 20.7215C6.20603 18.2278 6.75771 15.8697 7.30942 13.5116ZM29.2416 59.2821C27.6012 57.0312 26.4331 53.7448 24.2266 52.7353C18.9023 50.2993 13.0926 48.9274 7.09588 47.0036C7.3248 51.2598 8.41155 54.3959 11.0972 56.6958C16.5743 61.3861 23.3258 61.9145 30.4175 62.5884C29.9664 61.315 29.6655 60.4655 29.2416 59.2821ZM9.31345 27.803C12.9447 24.2206 16.5759 20.6383 20.3957 16.8699C18.5492 13.8376 16.5398 10.5376 14.2597 6.79318C11.6436 13.6453 9.62605 20.0961 8.4899 26.806C8.43676 27.12 8.81061 27.5064 9.31345 27.803Z" fill="black"/>
</svg>
