<svg width="84" height="100" viewBox="0 0 84 100" fill="none" xmlns="http://www.w3.org/2000/svg">
<path d="M40.04 95.4601C39.9764 96.7535 39.9127 98.0469 39.8167 100C36.8965 98.1621 34.3078 96.5328 31.556 94.7756C31.3248 94.5621 31.2367 94.5337 31.1286 94.5625C26.0453 90.1236 21.706 85.0857 17.9277 79.4048C15.1148 74.3613 12.2161 69.5128 9.76701 64.4629C8.65469 62.1693 8.14856 59.5042 7.88089 56.9577C7.56564 53.9587 7.80698 50.9055 7.80698 47.3729C16.1107 52.308 24.1375 57.0785 32.5307 62.0668C32.5307 57.5314 32.5307 53.5784 32.5307 49.7986C27.2215 48.8703 21.9646 48.1803 16.8395 46.973C13.5341 46.1944 10.3464 44.8141 7.23851 43.4286C-0.159266 40.1309 -1.19229 34.2753 1.05091 27.8676C1.59266 26.3202 2.5367 24.9029 3.28867 23.4395C6.7938 26.2628 10.1698 28.9835 13.5487 31.7008C13.8237 31.922 14.0892 32.2244 14.41 32.3078C15.0268 32.4681 16.0852 32.7536 16.2368 32.5312C16.5903 32.0127 16.7972 31.117 16.5694 30.5612C14.4417 25.3696 12.1755 20.2306 10.0194 15.0494C8.54682 11.5108 8.52487 12.4277 11.5563 10.4535C12.8559 9.60719 14.2306 8.86745 15.7717 7.96145C17.5476 13.0326 19.2563 17.9189 20.9703 22.8036C22.0928 26.0023 23.1778 29.2145 24.39 32.3816C24.6178 32.9769 25.2767 33.6484 25.8892 33.8447C36.2089 37.1513 46.5608 37.3364 56.9729 34.1293C58.6628 33.6087 58.8355 32.3105 59.2327 31.1562C61.6413 24.1552 63.9557 17.1243 66.3054 10.1046C66.5181 9.46935 66.7581 8.84263 67.0947 7.90869C69.5302 9.32997 71.764 10.6334 74.2137 12.063C71.7714 17.9433 69.3628 23.7443 66.951 29.5441C66.8179 29.8641 66.5476 30.1694 66.5338 30.4892C66.5042 31.1726 66.601 31.861 66.646 32.5474C67.281 32.4279 68.0836 32.505 68.5241 32.1576C71.9061 29.4905 75.2187 26.7422 78.5485 24.0142C78.7598 23.8411 78.9344 23.6267 79.2525 23.3027C81.5353 25.9031 82.7111 28.8349 83.0844 32.3786C83.1284 32.7165 83.1521 32.7856 83.1758 32.8548C83.488 37.9139 80.858 41.0174 76.299 43.244C69.3948 46.6161 62.0341 48.1344 54.4546 49.0095C53.1739 49.1574 51.8945 49.3163 50.476 49.4868C50.476 53.4927 50.476 57.4591 50.476 61.9435C58.726 57.0782 66.7653 52.3372 74.9665 47.5006C74.9665 52.0986 75.1203 56.3549 74.8836 60.5911C74.8001 62.0846 73.863 63.5769 73.1421 64.9878C68.4578 74.1544 63.7162 83.3357 56.1467 90.6872C53.0548 93.6902 49.2881 96.051 45.708 98.7925C44.9927 99.0206 44.3978 99.1604 43.4757 99.3769C43.4757 98.07 43.4757 96.946 43.4574 95.5032C43.4117 94.9991 43.3844 94.8138 43.4027 94.4387C43.4178 89.5391 43.3872 84.8295 43.3937 79.9823C43.4024 79.659 43.374 79.4732 43.3892 79.0975C43.4328 76.6183 43.4328 74.329 43.4328 71.8649C42.204 71.977 41.309 72.0586 40.2811 72.1567C40.1167 72.3316 40.0854 72.4901 40.0163 72.8396C40.0081 75.1162 40.0377 77.2018 40.0292 79.4245C40.0155 79.7478 40.0399 79.9339 40.0242 80.3109C40.0062 85.2106 40.0284 89.9196 40.0093 94.7649C39.9921 95.0875 40.016 95.2738 40.04 95.4601Z" fill="black"/>
<path d="M31.4538 1.35067C35.9443 -0.0798919 40.5567 -0.197361 45.5074 0.191918C45.8708 0.196372 45.941 0.178126 46.0112 0.159855C47.6733 0.554247 49.3353 0.948638 51.1034 1.36818C51.1457 1.76488 51.2251 2.15674 51.2237 2.54832C51.1931 11.1166 51.0852 19.6854 51.1668 28.2526C51.1857 30.2346 50.3868 31.0222 48.5522 31.5461C42.8697 33.1689 37.3526 32.6198 31.4395 30.6044C31.4395 21.3064 31.4395 11.9206 31.4418 2.21454C31.4474 1.71313 31.4506 1.53191 31.4538 1.35067Z" fill="black"/>
<path d="M6.60293 65.7476C8.07825 68.7014 9.46755 71.521 10.9897 74.6102C4.71633 72.8327 0.384267 67.5872 0.326117 61.9442C0.261464 55.6702 0.311311 49.395 0.311311 42.7651C1.79485 43.8354 3.07802 44.6512 4.20316 45.6342C4.58087 45.9642 4.68648 46.7184 4.69382 47.2813C4.73524 50.4577 4.81339 53.6391 4.67588 56.8106C4.54124 59.9163 5.00945 62.8514 6.60293 65.7476Z" fill="black"/>
<path d="M78.6583 71.4658C76.6981 72.5798 74.7379 73.6939 72.7776 74.8079C72.6024 74.6598 72.4272 74.5116 72.252 74.3635C73.2512 72.2898 74.0816 70.1201 75.2854 68.1626C77.6484 64.3203 78.9404 60.2966 78.6195 55.7925C78.468 53.6666 78.8596 51.4905 78.5746 49.3912C78.1179 46.0274 79.5822 44.0893 82.9481 43.0581C83.0027 43.5619 83.101 44.0654 83.1052 44.5696C83.1483 49.6695 83.0059 54.7773 83.2591 59.8671C83.4827 64.3628 82.2613 68.1447 78.7139 71.316C78.7194 71.4855 78.6583 71.4658 78.6583 71.4658Z" fill="black"/>
</svg>
