<svg width="85" height="100" viewBox="0 0 85 100" fill="none" xmlns="http://www.w3.org/2000/svg">
<path d="M7.20148 50.2472C6.96646 49.2839 6.92162 48.2226 6.46337 47.3741C4.52022 43.7761 3.8531 39.9293 3.79676 35.9264C3.76333 33.5489 4.93948 31.7148 6.48631 29.8199C9.20288 34.264 13.7886 34.6497 18.1933 35.6188C18.7582 32.0011 19.362 28.5644 19.8184 25.1091C20.4652 20.2132 23.281 17.1592 27.9605 15.5793C31.5067 14.3821 35.103 13.5292 39.0505 14.0007C38.4892 15.2138 37.8598 16.3785 37.3983 17.6036C34.2774 25.8882 34.6771 34.129 37.9848 42.2507C38.5174 43.5584 39.6442 44.6554 40.5842 45.7797C41.7168 47.1344 43.1365 46.982 44.0261 45.7118C45.4399 43.693 47.0102 41.5932 47.6791 39.2959C50.1291 30.8813 50.1484 22.5457 45.6047 14.6353C45.518 14.4844 45.5192 14.2854 45.4613 14.0285C51.1645 13.5238 56.4286 14.5485 61.0166 17.8984C62.0461 18.6501 63.0318 19.8946 63.3336 21.0827C64.4292 25.3961 65.2286 29.7814 66.1312 34.1412C66.2325 34.6302 66.2795 35.1299 66.382 35.8328C71.0553 34.9499 75.6775 34.3163 78.1087 29.61C81.7382 32.7487 81.2685 36.7357 80.4786 40.5465C79.8669 43.4975 78.5059 46.3003 77.372 49.3725C77.2801 49.6851 77.2942 49.7943 77.3083 49.9035C77.4472 49.8398 77.5862 49.776 77.7252 49.7123C81.4949 47.3351 83.2773 43.6569 84.6155 39.1144C84.517 50.6368 78.1231 65.3237 60.7999 68.5351C62.7683 70.2593 64.7206 71.9693 67.0223 73.9853C67.7249 72.349 68.5154 70.9104 68.9529 69.3758C69.3877 67.85 70.1911 66.8438 71.5851 66.0424C73.7554 64.7947 75.8034 63.3443 77.8479 62.0158C79.7054 68.6894 73.1305 83.0839 65.5807 88.414C64.3275 86.1882 63.1962 83.9004 61.8001 81.7787C60.4363 79.7061 58.8022 77.8031 57.3047 75.849C48.7359 81.1077 35.0827 81.1656 27.873 76.0646C23.8547 79.4362 21.6109 84.0658 18.9421 88.6681C11.786 80.7773 5.54106 72.8114 6.65508 61.6611C9.01988 63.2957 11.4326 64.8728 13.7229 66.6043C14.3768 67.0987 14.7707 68.0011 15.1175 68.7863C15.9007 70.5591 16.5801 72.3755 17.2851 74.1327C19.7361 72.1326 21.8635 70.3965 24.093 68.577C16.3684 66.9966 9.76154 63.6144 5.44506 56.889C2.03747 51.5797 0.173749 45.7702 0 39.4366C1.37821 43.6314 3.27374 47.4548 7.24018 50.0194C7.36747 50.0594 7.42251 50.0546 7.47755 50.0497C7.46543 50.0178 7.45331 49.9858 7.44114 49.9539C7.36124 50.0516 7.28133 50.1494 7.20148 50.2472ZM31.0475 51.4692C24.4996 49.108 17.9518 46.7468 11.2915 44.345C11.3496 48.2939 13.5464 52.6364 16.5041 54.6789C22.1864 58.6031 28.6148 58.6735 35.3147 58.1811C34.7005 55.3839 33.4143 53.2583 31.0475 51.4692ZM51.2976 53.629C50.5085 55.1044 49.7195 56.5799 48.8118 58.2773C54.2259 58.6068 59.0811 58.5439 63.7993 56.9163C69.6899 54.8844 73.5197 49.8918 73.2157 44.7672C68.4285 46.2381 63.5895 47.6984 58.7695 49.2163C56.027 50.0801 53.3474 51.0906 51.2976 53.629ZM50.5592 72.433C52.0315 70.6526 53.5037 68.8721 55.0785 66.9677C52.5094 65.6379 50.4525 64.5733 48.3957 63.5088C48.2457 63.653 48.0956 63.7973 47.9457 63.9416C48.8139 65.8446 49.682 67.7476 50.7448 70.0768C49.1378 71.0641 47.3203 72.4024 45.3139 73.3656C41.5676 75.164 35.7494 72.8552 34.1658 69.4606C35.0249 67.4081 35.7597 65.6526 36.4944 63.8971C34.3209 64.5753 32.5014 65.5066 30.6835 66.4403C30.3492 66.612 30.0205 66.7935 29.6924 66.9688C31.9102 71.3067 35.3834 74.2637 39.9358 75.6281C40.9473 75.9313 42.2025 76.4397 43.0456 76.1138C45.5586 75.1425 47.9224 73.8034 50.5592 72.433Z" fill="white"/>
<path d="M62.304 91.5371C58.7205 99.7131 58.4498 99.9275 49.5522 99.9879C42.9079 100.033 36.2627 99.9337 29.6182 99.9664C28.0316 99.9743 26.8443 99.5254 26.053 98.1485C24.9099 96.1593 23.7367 94.1867 22.4754 92.1188C22.4751 91.3513 22.374 90.5519 22.7105 90.013C24.3623 87.3677 26.1305 84.7916 28.2173 81.6494C29.7355 84.4642 30.9484 86.7129 32.1458 88.9328C34.2187 88.4461 36.223 87.9178 38.2529 87.5107C42.5985 86.6393 46.8533 87.2209 50.9629 88.6566C52.4448 89.1743 53.081 88.7868 53.6455 87.5378C54.4492 85.7595 55.351 84.0236 56.3836 81.9172C58.6023 85.2468 61.5075 87.6575 62.304 91.5371Z" fill="white"/>
<path d="M69.6549 16.4992C73.7151 11.8034 75.1232 6.168 76.6605 0.0488281C81.2459 4.85664 81.3315 10.5098 81.0253 16.1841C80.6181 23.7312 76.1631 29.8611 70.1853 31.4594C69.6325 29.3924 69.2166 27.2777 68.4845 25.273C67.7694 23.3149 66.7313 21.4693 65.8203 19.5432C67.0443 18.5781 68.3008 17.5875 69.6549 16.4992Z" fill="white"/>
<path d="M3.55377 17.1201C3.12708 11.032 3.50179 5.29874 7.69779 0C9.86743 7.72312 11.4704 15.276 18.6869 19.3564C17.0765 23.4077 15.5165 27.332 13.9339 31.3131C8.9194 30.2174 4.62496 24.5744 3.55377 17.1201Z" fill="white"/>
<path d="M48.5456 9.09145C48.5633 10.4603 48.5633 11.6517 48.5633 12.9194C44.2833 12.9194 40.1322 12.9194 35.8398 12.9194C35.8398 11.4158 35.8398 9.93709 35.8398 8.2061C39.8359 8.2061 43.7859 8.19244 47.7353 8.23653C48.0021 8.23952 48.2638 8.67797 48.5456 9.09145Z" fill="white"/>
</svg>
